<svg version="1.1"
	 xmlns="http://www.w3.org/2000/svg" xmlns:xlink="http://www.w3.org/1999/xlink"
	 x="0px" y="0px" width="521.8px" height="140.9px" viewBox="0 0 521.8 140.9" style="enable-background:new 0 0 521.8 140.9;"
	 xml:space="preserve">
<defs>
</defs>
<g>
	<path d="M20.5,2.6v116.5h39.9v19.2H0V2.6H20.5z"/>
	<path d="M67.5,69.9c0-19.1,7-35.5,21-49.2c13.9-13.7,30.7-20.6,50.3-20.6c19.3,0,35.9,6.9,49.7,20.7c13.9,13.8,20.8,30.4,20.8,49.8
		c0,19.5-7,36.1-20.9,49.7c-14,13.7-30.9,20.5-50.7,20.5c-17.5,0-33.3-6.1-47.2-18.2C75.2,109.2,67.5,91.6,67.5,69.9z M88.2,70.1
		c0,15,5,27.3,15.1,37c10,9.7,21.6,14.5,34.7,14.5c14.2,0,26.2-4.9,36-14.8c9.8-10,14.7-22.1,14.7-36.4c0-14.5-4.8-26.6-14.5-36.4
		c-9.6-9.8-21.5-14.8-35.7-14.8c-14.1,0-26,4.9-35.8,14.8C93,43.8,88.2,55.8,88.2,70.1z"/>
	<path d="M304.9,67.7H361v4.5c0,10.2-1.2,19.2-3.6,27.1c-2.3,7.3-6.3,14.1-11.9,20.4c-12.6,14.2-28.6,21.3-48.1,21.3
		c-19,0-35.2-6.9-48.8-20.6c-13.5-13.8-20.3-30.3-20.3-49.6c0-19.7,6.9-36.4,20.7-50.1C262.8,6.9,279.5,0,299.3,0
		c10.6,0,20.5,2.2,29.7,6.5c8.8,4.3,17.4,11.4,25.9,21.1l-14.6,14c-11.1-14.8-24.7-22.2-40.7-22.2c-14.4,0-26.4,5-36.1,14.9
		c-9.7,9.7-14.6,21.9-14.6,36.6c0,15.1,5.4,27.6,16.3,37.4c10.1,9.1,21.1,13.6,33,13.6c10.1,0,19.1-3.4,27.2-10.2
		c8-6.9,12.5-15.1,13.4-24.6h-33.8V67.7z"/>
	<path d="M380,69.9c0-19.1,7-35.5,21-49.2c13.9-13.7,30.7-20.6,50.3-20.6c19.3,0,35.9,6.9,49.7,20.7c13.9,13.8,20.8,30.4,20.8,49.8
		c0,19.5-7,36.1-20.9,49.7c-14,13.7-30.9,20.5-50.7,20.5c-17.5,0-33.3-6.1-47.2-18.2C387.6,109.2,380,91.6,380,69.9z M400.6,70.1
		c0,15,5,27.3,15.1,37c10,9.7,21.6,14.5,34.7,14.5c14.2,0,26.2-4.9,36-14.8c9.8-10,14.7-22.1,14.7-36.4c0-14.5-4.8-26.6-14.5-36.4
		c-9.6-9.8-21.5-14.8-35.7-14.8c-14.1,0-26,4.9-35.8,14.8C405.5,43.8,400.6,55.8,400.6,70.1z"/>
</g>
</svg>