<svg version="1.1" id="Layer_1" class="headerIcon" xmlns="http://www.w3.org/2000/svg"
	     xmlns:xlink="http://www.w3.org/1999/xlink"
	     x="0px" y="0px"
	     viewBox="0 0 500 500" style="enable-background:new 0 0 500 500;" xml:space="preserve">
<g>
	<path d="M202.3,254.2c-8.1-8.1-21.3-8.1-29.4,0c-4.1,4.1-6.1,9.4-6.1,14.7c0,5.3,2,10.6,6.1,14.7l62.4,62.4c0.5,0.5,1,0.9,1.5,1.4
		c0.1,0.1,0.2,0.2,0.4,0.3c0.4,0.3,0.8,0.7,1.3,0.9c0.1,0.1,0.2,0.1,0.4,0.2c0.5,0.3,0.9,0.6,1.4,0.8c0.1,0,0.2,0.1,0.3,0.1
		c0.5,0.3,1,0.5,1.6,0.8c0.1,0,0.1,0,0.2,0.1c0.6,0.2,1.2,0.4,1.7,0.6c0.1,0,0.1,0,0.2,0.1c0.6,0.2,1.2,0.3,1.8,0.4
		c0.2,0,0.3,0.1,0.5,0.1c0.5,0.1,1,0.2,1.5,0.2c0.7,0.1,1.4,0.1,2.1,0.1c0.7,0,1.4,0,2.1-0.1c0.5-0.1,1-0.1,1.5-0.2
		c0.2,0,0.3,0,0.5-0.1c0.6-0.1,1.2-0.3,1.8-0.4c0.1,0,0.1,0,0.2,0c0.6-0.2,1.2-0.4,1.8-0.6c0,0,0.1,0,0.2-0.1
		c0.5-0.2,1.1-0.5,1.6-0.8c0.1,0,0.2-0.1,0.2-0.1c0.5-0.3,0.9-0.5,1.4-0.8c0.1-0.1,0.2-0.1,0.3-0.2c0.4-0.3,0.9-0.6,1.3-0.9
		c0.1-0.1,0.2-0.2,0.4-0.3c0.5-0.4,1-0.9,1.5-1.4l62.4-62.4c8.1-8.1,8.1-21.3,0-29.4c-8.1-8.1-21.3-8.1-29.4,0l-26.9,26.9V40
		c0-11.5-9.3-20.8-20.8-20.8c-11.5,0-20.8,9.3-20.8,20.8v241.1L202.3,254.2z M202.3,254.2"/>
	<path d="M420.2,306.8c0-56.8-28.2-109.7-75.4-141.4c-9.5-6.4-22.5-3.9-28.9,5.7c-6.4,9.5-3.9,22.5,5.7,28.9
		c35.7,24,57,63.9,57,106.8c0,70.9-57.7,128.6-128.6,128.6c-70.9,0-128.6-57.7-128.6-128.6c0-42.8,21.2-82.7,56.7-106.7
		c9.5-6.4,12-19.4,5.6-28.9c-6.4-9.5-19.4-12-28.9-5.6c-47,31.8-75,84.5-75,141.2C79.8,400.6,156.1,477,250,477
		S420.2,400.6,420.2,306.8L420.2,306.8z M420.2,306.8"/>
</g>
</svg>